<svg xmlns="http://www.w3.org/2000/svg" viewBox="0 0 600 600"><defs><style>.cls-1{fill:#0a46e6}</style></defs><title>Icon</title><g id="Hybrid_Lines_Outlined_" data-name="Hybrid_Lines (Outlined)"><path class="cls-1" d="M71.32 200.27h457.06v18H71.32zm253.94 131.17a26.69 26.69 0 00-50.81 0l-21.23 65.09H71.32v18h188.44a9 9 0 008.55-6.21l23.27-71.34a8.68 8.68 0 0116.55 0l23.26 71.3a9 9 0 008.55 6.21h188.44v-18h-181.9z"/><path class="cls-1" d="M236.08 250.87H71.32v113h166.2l26.72-72.66a30 30 0 00-28.16-40.34zM247.34 285L225 345.89H89.32v-77h146.76A12 12 0 01247.34 285zm281.04 78.89v-113H363.62a30 30 0 00-28.16 40.36l26.72 72.66zM353.78 274a11.88 11.88 0 019.84-5.14h146.76v77H374.74L352.36 285a11.9 11.9 0 011.42-11z"/><path class="cls-1" d="M485.93 320.85v-28.11H382.04l10.65 28.11h93.24z"/></g></svg>