<svg xmlns="http://www.w3.org/2000/svg" viewBox="0 0 600 600"><title>Icon</title><path d="M449.37 357.36a36.32 36.32 0 00-27.79-12.87h-23.75a122.78 122.78 0 00-87.43-90.76l18.18-70c1.27.1 2.56.17 3.86.17a48.87 48.87 0 10-21.24-4.9l-4 15.31a182.09 182.09 0 00-28.66-2.31 179 179 0 00-122.6 48.35l12.29 13.15A161 161 0 01278.54 210a163.5 163.5 0 0124.14 1.81l-10 38.52a122.57 122.57 0 10108.26 121.73c0-3.22-.13-6.41-.37-9.57h21a18.35 18.35 0 0114.05 6.5 18 18 0 014 14.62L421.48 492l17.75 3 18.18-108.36a36 36 0 00-8.04-29.28zM301.6 135a30.84 30.84 0 1130.84 30.83A30.88 30.88 0 01301.6 135zm77.64 209.47H309a20.53 20.53 0 01-15.44-7.11 10.6 10.6 0 01-2.56-8.95l14.86-57.26a105 105 0 0173.38 73.34zm3.7 27.57a104.58 104.58 0 11-104.58-104.55c3.29 0 6.54.16 9.75.46l-14.59 56.19-.1.41a28.53 28.53 0 006.18 24.18 38.63 38.63 0 0029.4 13.76h73.5q.44 4.74.44 9.57z" fill="#0a46e6" data-name="Hybrid_Lines (Outlined)"/></svg>