<svg xmlns="http://www.w3.org/2000/svg" viewBox="0 0 600 600"><title>Icon</title><path d="M394.67 406.35c27.07-17 41.6-49 37-81.37l-10.05-70.84H314.28l-27.59-44.52V71.12h-73.4v138.61L178 265.93a59 59 0 00-9.05 31.4v232.09h91.15v-18h-73.19V297.33a40.89 40.89 0 016.29-21.82l38.09-60.6V89.12h37.4v125.63l24.41 39.39H280L269.93 325c-4.6 32.38 9.92 64.33 37 81.37a82 82 0 0034.87 12.13v92.92h-45.15v18H405v-18h-45.2V418.5a82 82 0 0034.87-12.15zm-106.92-78.84l7.86-55.37H406l7.86 55.37v.05H287.74zM350.8 401a64.18 64.18 0 01-34.28-9.87 63.52 63.52 0 01-28.85-45.56h126.26A63.28 63.28 0 01350.8 401z" fill="#231f20" data-name="Hybrid_Lines (Outlined)"/></svg>