<svg xmlns="http://www.w3.org/2000/svg" viewBox="0 0 600 600"><defs><style>.cls-1{fill:#0a46e6}</style></defs><title>Icon</title><g id="Hybrid_Lines_Outlined_" data-name="Hybrid_Lines (Outlined)"><path class="cls-1" d="M447.35 193.76l-6.22 4.49a29.85 29.85 0 01-41.66-41.66l4.48-6.21-58.3-58.3L94.48 343.25l58.29 58.3 6.22-4.48a29.85 29.85 0 0141.66 41.66l-4.49 6.27 58.29 58.29 251.19-251.23zM219.28 442.61a47.88 47.88 0 00-64.17-64.18l-35.17-35.18 225.71-225.71 35.18 35.17A47.88 47.88 0 00445 216.88l35.18 35.18-225.72 225.73z"/><path class="cls-1" d="M327.68 254.16l-27.61-55.94-27.61 55.94-61.74 9 44.68 43.55-10.55 61.49 55.22-29 55.22 29-10.54-61.49 44.67-43.55zm4.5 39.63l-6.77 6.61 1.6 9.32 4.38 25.55-22.94-12.06-8.38-4.41-8.37 4.41-22.94 12.06 4.38-25.55 1.6-9.32-6.74-6.61-18.6-18.09 25.65-3.7 9.36-1.37 4.19-8.48 11.47-23.24 11.47 23.24 4.19 8.48 9.36 1.37 25.65 3.72z"/></g></svg>