<svg xmlns="http://www.w3.org/2000/svg" viewBox="0 0 600 600"><title>Icon</title><path d="M188.19 163.85A48.84 48.84 0 10139.36 115a48.89 48.89 0 0048.83 48.85zm0-79.67A30.84 30.84 0 11157.36 115a30.87 30.87 0 0130.83-30.82zm215.27 79.67A48.84 48.84 0 10354.63 115a48.89 48.89 0 0048.83 48.85zm0-79.67A30.84 30.84 0 11372.63 115a30.87 30.87 0 0130.83-30.82zm-167.27 97.93h-96a30 30 0 00-30 30v186.83h42.2V527.5h18V398.94H206V527.5h18V398.94h42.2V212.11a30 30 0 00-30.01-30zm12 198.83h-120V212.11a12 12 0 0112-12h96a12 12 0 0112 12zm233.27 18l-33.11-179.46a45.65 45.65 0 00-44.89-37.37 45.65 45.65 0 00-44.89 37.37l-33.11 179.46h42.2V527.5h18V398.94h35.6V527.5h18V398.94zM376.27 222.75a27.65 27.65 0 0154.38 0l29.18 158.19H347.08z" fill="#231f20" data-name="Hybrid_Lines (Outlined)"/></svg>