<svg xmlns="http://www.w3.org/2000/svg" viewBox="0 0 600 600"><defs><style>.cls-1{fill:#0a46e6}</style></defs><title>Icon</title><g id="Hybrid_Lines_Outlined_" data-name="Hybrid_Lines (Outlined)"><path class="cls-1" d="M299.85 317.63A48.84 48.84 0 10251 268.8a48.89 48.89 0 0048.85 48.83zm0-79.67A30.84 30.84 0 11269 268.8a30.87 30.87 0 0130.85-30.8zm-.49 107.52a53 53 0 00-52.94 52.94v105.74H352.3V398.42a53 53 0 00-52.94-52.94zm34.94 140.68h-69.88v-87.74a34.94 34.94 0 0169.88 0z"/><path class="cls-1" d="M299.85 99.47c-93.37 0-169.33 76-169.33 169.33a169.11 169.11 0 0069 136.38l10.68-14.49a152.79 152.79 0 01-44.85-52.53 149.6 149.6 0 01-16.8-69.36c0-83.44 67.89-151.33 151.33-151.33s151.3 67.89 151.3 151.33a149.66 149.66 0 01-16.58 68.94 152.71 152.71 0 01-44.32 52.4l10.77 14.43A170.92 170.92 0 00450.62 346a167.58 167.58 0 0018.56-77.15c0-93.42-75.96-169.38-169.33-169.38z"/><path class="cls-1" d="M299.85 160.22a108.58 108.58 0 00-70.16 191.45l11.64-13.74a90.57 90.57 0 11117.74-.58L370.84 351a108.58 108.58 0 00-71-190.74z"/></g></svg>