<svg xmlns="http://www.w3.org/2000/svg" viewBox="0 0 600 600"><defs><style>.cls-1{fill:#0a46e6}</style></defs><title>Icon</title><g id="Hybrid_Lines_Outlined_" data-name="Hybrid_Lines (Outlined)"><path class="cls-1" d="M350.2 205.44a48.84 48.84 0 10-48.83-48.84 48.9 48.9 0 0048.83 48.84zm0-79.67a30.84 30.84 0 11-30.83 30.83 30.87 30.87 0 0130.83-30.83zM337.89 329.6l-66-21.27V279l26.36-22.75h.05a40.45 40.45 0 00-53.07-61.06L136.46 284.9l-.17.14a39 39 0 00-13.44 29.46v197.88a9 9 0 009 9h60a9 9 0 009-9V349.86a21 21 0 017.15-15.75l45.89-39.59v20.37a9 9 0 006.24 8.57l72.28 23.28zm-141.74-9.07a39 39 0 00-13.3 29.33v153.52h-42V314.5a21 21 0 017.15-15.79L256.73 209l.17-.14a22.45 22.45 0 0129.53 33.82l-14.58 12.58v-20.88h-18v36.36z"/><path class="cls-1" d="M359.85 364.45H261v18h104.32a9 9 0 008-4.85l36.35-70-16-8.3zm103.92-36.23a32.42 32.42 0 10-25.51 54.19h1.55a32.42 32.42 0 0024-54.23zm-24.66 36.21a14.41 14.41 0 01.66-28.81h.7a14.42 14.42 0 11-1.36 28.8zm-178.14 35.3h211.18v18H260.97z"/></g></svg>