<svg xmlns="http://www.w3.org/2000/svg" viewBox="0 0 600 600"><defs><style>.cls-1{fill:#0a46e6}</style></defs><title>Icon</title><g id="Hybrid_Lines_Outlined_" data-name="Hybrid_Lines (Outlined)"><path class="cls-1" d="M430.46 97.21H168.32a55 55 0 00-54.94 54.94v305h18.91v18.36a19 19 0 0019 19h68.81a19 19 0 0019-19V457.1h119.47v18.36a19 19 0 0019 19h70.92a19 19 0 0019-19V457.1h17.92v-305a55 55 0 00-54.95-54.89zM221.1 475.46a1 1 0 01-1 1h-68.81a1 1 0 01-1-1v-18.18h70.81zm228.39 0a1 1 0 01-1 1h-70.92a1 1 0 01-1-1v-18.18h72.92zm17.92-36.36h-336v-93.82h336zm0-111.82h-336V181.79h336zm0-163.49h-336v-11.64a37 37 0 0136.94-36.94h262.11a37 37 0 0137 36.94z"/><path class="cls-1" d="M244.75 129.97h109.28v18H244.75zM242 364.94h-92v54.68h92zm-18 36.68h-56v-18.68h56zm224.79-36.68h-91.27v54.68h91.27zm-18 36.68h-55.27v-18.68h55.27z"/></g></svg>