<svg xmlns="http://www.w3.org/2000/svg" viewBox="0 0 600 600"><defs><style>.cls-1{fill:#0a46e6}</style></defs><title>Icon</title><g id="Hybrid_Lines_Outlined_" data-name="Hybrid_Lines (Outlined)"><path class="cls-1" d="M390.63 97.33a50.3 50.3 0 00-50.25 50.25v226.18h40v129.81h58V145.14a47.87 47.87 0 00-47.75-47.81zm29.82 388.24h-22V355.76h-40V147.58a32.29 32.29 0 0132.25-32.25 29.85 29.85 0 0129.82 29.81zM205.74 106.33h18V220.5h-18zm40.03 0h18V220.5h-18z"/><path class="cls-1" d="M285.8 229a31.07 31.07 0 01-31 31h-9v225.57h-22V260h-9a31.07 31.07 0 01-31-31V106.33h-18V229a49.11 49.11 0 0040 48.2v226.4h58V277.17a49.11 49.11 0 0040-48.2V106.33h-18z"/></g></svg>