<svg xmlns="http://www.w3.org/2000/svg" viewBox="0 0 600 600"><title>Icon</title><path d="M496 412H102.69a25.84 25.84 0 01-14.12-47.35l.64-.39 200.33-110.5a6 6 0 002.94-5.25V247a6.29 6.29 0 00-4.71-5.81 48.51 48.51 0 01-34.48-48.47c.94-25.2 21.25-45.7 46.23-46.66a47.51 47.51 0 0135.1 13.38 48.38 48.38 0 0114.92 35.16h-18a30.54 30.54 0 00-9.4-22.19 29.68 29.68 0 00-21.92-8.36c-15.38.59-28.36 13.75-29 29.35A30.55 30.55 0 00292.9 224a24.19 24.19 0 0117.58 23v1.5a24 24 0 01-12.16 21l-200 110.31a7.63 7.63 0 00-2.88 8.68 7.43 7.43 0 007.29 5.5H496a7.42 7.42 0 007.34-5.65 7.62 7.62 0 00-3.44-8.88L330.47 278.5l9.21-15.5 169.54 101A25.84 25.84 0 01496 412z" fill="#0a46e6" data-name="Hybrid_Lines (Outlined)"/></svg>