<svg xmlns="http://www.w3.org/2000/svg" viewBox="0 0 600 600"><defs><style>.cls-1{fill:#231f20}</style></defs><g id="Hybrid_Lines_Outlined_" data-name="Hybrid_Lines (Outlined)"><path class="cls-1" d="M360.2 205.44a48.84 48.84 0 1 0-48.83-48.84 48.9 48.9 0 0 0 48.83 48.84zm0-79.67a30.84 30.84 0 1 1-30.83 30.83 30.87 30.87 0 0 1 30.83-30.83zM281.85 279l26.36-22.75h.05a40.45 40.45 0 0 0-53.07-61.06L146.46 284.9l-.17.14a39 39 0 0 0-13.44 29.46v197.88a9 9 0 0 0 9 9h60a9 9 0 0 0 9-9V349.86a21 21 0 0 1 7.15-15.75l45.89-39.59v20.37a9 9 0 0 0 2.64 6.37l58.27 58.28 12.73-12.73-55.64-55.65zm-75.7 41.54a39 39 0 0 0-13.3 29.33v153.51h-42V314.5a21 21 0 0 1 7.15-15.79L266.73 209l.17-.14a22.45 22.45 0 0 1 29.53 33.82l-14.58 12.58v-20.88h-18v36.36z"/><path class="cls-1" d="M422.85 297.38H315.32a9 9 0 0 0-6.32 15.37l70.11 70a9 9 0 0 0 6.36 2.63h37.42a9 9 0 0 0 9-9v-70a9 9 0 0 0-9.04-9zm-9 70h-24.69l-52.09-52h76.78zM382 257a22.69 22.69 0 0 1 22.66 22.66h18A40.71 40.71 0 0 0 382 239zm-8.93 1.68l-7-16.6a40.62 40.62 0 0 0-13 8.77l12.74 12.72a22.41 22.41 0 0 1 7.26-4.89zm-31.59 17.58l17.94 1.48a22.39 22.39 0 0 1 2.23-8.1l-16.16-7.93a40.32 40.32 0 0 0-4.01 14.55z"/></g></svg>