<svg xmlns="http://www.w3.org/2000/svg" viewBox="0 0 600 600"><defs><style>.cls-1{fill:#231f20}</style></defs><title>Icon</title><g id="Hybrid_Lines_Outlined_" data-name="Hybrid_Lines (Outlined)"><path class="cls-1" d="M449.14 511.17H135.35V112.48h313.79v74.25h18V94.48H117.35v434.69h349.79v-94.06h-18v76.06z"/><path class="cls-1" d="M270.54 215.77a38.64 38.64 0 10-38.63-38.64 38.69 38.69 0 0038.63 38.64zm0-59.27a20.64 20.64 0 11-20.63 20.63 20.66 20.66 0 0120.63-20.63zm28.97 319.65v-87.43h38.06V265.05a39 39 0 00-39-39h-56a39 39 0 00-39 39v123.67h37.93v87.43h18v-87.43h22.06v87.43zm-78-105.43V265.05a21 21 0 0121-21h56a21 21 0 0121 21v105.67zm236.63 14.6l-40.27-39.46-12.6 12.86 52.87 51.8 52.87-51.8-12.59-12.86-40.28 39.46zm-52.87-124.26l12.6 12.85 40.27-39.46 40.28 39.46 12.59-12.85-52.87-51.81-52.87 51.81z"/></g></svg>