<svg width="24" height="24" viewBox="0 0 24 24" fill="none" xmlns="http://www.w3.org/2000/svg">
<g clip-path="url(#clip0_34_36)">
<rect width="24" height="24" fill="white"/>
<path fill-rule="evenodd" clip-rule="evenodd" d="M21 4.75V8.7495C21 9.42016 20.1888 9.74888 19.7197 9.27984L18.6038 8.16394L10.9937 15.774C10.7008 16.0669 10.226 16.0669 9.93306 15.774L9.22597 15.0669C8.93306 14.774 8.93306 14.2992 9.22597 14.0063L16.8361 6.39613L15.7204 5.28034C15.2494 4.80938 15.583 4 16.2508 4H20.25C20.6642 4 21 4.33578 21 4.75ZM15.7197 12.4623L15.2197 12.9623C15.079 13.103 15 13.2937 15 13.4927V18H5V8H13.25C13.4489 7.99999 13.6397 7.92098 13.7803 7.78034L14.2803 7.28034C14.7528 6.80784 14.4182 6 13.75 6H4.5C3.67156 6 3 6.67156 3 7.5V18.5C3 19.3284 3.67156 20 4.5 20H15.5C16.3284 20 17 19.3284 17 18.5V12.9926C17 12.3244 16.1921 11.9898 15.7197 12.4623Z" fill="#1E1E1E"/>
</g>
<defs>
<clipPath id="clip0_34_36">
<rect width="24" height="24" fill="white"/>
</clipPath>
</defs>
</svg>
