<svg xmlns="http://www.w3.org/2000/svg" viewBox="0 0 298 298"><title>The Field Museum</title><path fill="#FFF" d="M5 5h107.7v37.6H51.4v14.7H108v33.2H51.4v53.1H5V5zm0 149.4h46.4v98.8h61.5V293H5V154.4zM123.7 5H170v138.6h-46.4L123.7 5zm57.1 0h111.1v36.4h-65.1v15.8h60.4v33.3h-60.4v16.6H293v36.4H180.8V5zM293 254.2h-38.8V293H293v-38.8zm-169.3-99.8h51.6c53.5 0 80.3 27.1 80.3 68.1v.4c0 41-27.3 70.1-81.8 70.1h-50.1V154.4zm52.5 98.2c20.6 0 33.9-8.7 33.9-28.7v-.4c0-20-13.3-28.7-33.9-28.7h-7.5v57.8h7.5z"/><g fill="#FFF"><path d="M92 172h.7c5.7-.1 9.1-.9 9.1-8.2 0-6.5-2.7-8.9-8.3-8.9-6.2 0-7.5 3.4-8.4 6.8-.7 2.9-1.3 4.2-3.6 4.2-1.9 0-2.6-.8-2.6-2.5 0-2.2 1.1-2.6 4.2-2.6v-6.2h-.7c-6.3.1-9.1 1.5-9.1 8.7 0 6 2.2 9.1 8.7 9.1 6-.1 7.5-2.9 8.3-7.3.5-2.8.9-3.6 3.4-3.6 1.7 0 2.5.8 2.5 2.1 0 1.9-1.3 2.2-4.2 2.2v6.2z"/><path class="st0" d="M73.8 124.1l13.9 3-13.9-.3v6.4h27.4v-9L86 121.6l15.2-2.6v-9H73.8v6.4l13.9-.3-13.9 3zm0 100.7l13.9 3-13.9-.3v6.4h27.4v-9L86 222.2l15.2-2.6v-9H73.8v6.4l13.9-.3-13.9 3zm5.1-80.5c0-1.6.7-1.9 2.5-1.9h19.8v-6.5H81.1c-5.3 0-7.8 1.6-7.8 8.4 0 6.8 2.5 8.4 7.8 8.4h20.1v-6.5H81.4c-1.9 0-2.5-.3-2.5-1.9zm22.3 29.9H73.8v15.1h5.6v-8.6H85v6.7h5.6v-6.7h5v8.2h5.6zm-22.3 25.3c0-1.6.7-1.9 2.5-1.9h19.8v-6.5H81.1c-5.3 0-7.8 1.6-7.8 8.4 0 6.8 2.5 8.4 7.8 8.4h20.1v-6.5H81.4c-1.9.1-2.5-.2-2.5-1.9z"/></g></svg>