<svg xmlns="http://www.w3.org/2000/svg" viewBox="0 0 600 600"><defs><style>.cls-1{fill:#0a46e6}</style></defs><title>Icon</title><g id="Hybrid_Lines_Outlined_" data-name="Hybrid_Lines (Outlined)"><path class="cls-1" d="M375.21 256.83a51.28 51.28 0 10-51.28-51.28 51.34 51.34 0 0051.28 51.28zm0-84.56a33.28 33.28 0 11-33.28 33.28 33.32 33.32 0 0133.28-33.28zM226 181.74a51.28 51.28 0 10-51.28-51.28A51.34 51.34 0 00226 181.74zm0-84.56a33.28 33.28 0 11-33.28 33.28A33.32 33.32 0 01226 97.18z"/><path class="cls-1" d="M419.69 278.73h-80.36a47.68 47.68 0 00-30-19.18v-16.47a38.91 38.91 0 00-38.86-38.86h-89a38.91 38.91 0 00-38.86 38.86v277h315.9V317.6a38.91 38.91 0 00-38.82-38.87zm-119.09-2a29.58 29.58 0 11-29.6 29.58 29.61 29.61 0 0129.6-29.58zm47.47 225.33h-94.94V411.3a19.4 19.4 0 0119.38-19.38h56.18a19.4 19.4 0 0119.38 19.38zm92.48 0h-74.48V411.3a37.42 37.42 0 00-37.38-37.38h-56.18a37.42 37.42 0 00-37.38 37.38v90.76h-74.48v-259a20.89 20.89 0 0120.86-20.86h89a20.89 20.89 0 0120.86 20.86v16.57a47.58 47.58 0 1055.83 37.07h72.48a20.89 20.89 0 0120.86 20.87z"/></g></svg>