<svg xmlns="http://www.w3.org/2000/svg" viewBox="0 0 600 600"><defs><style>.cls-1{fill:#231f20}</style></defs><g id="Hybrid_Lines_Outlined_" data-name="Hybrid_Lines (Outlined)"><path class="cls-1" d="M295.16 178.12a110.33 110.33 0 0 0-106.23 81l17.36 4.74a92.14 92.14 0 0 1 181 24.34c0 29.21-9.68 44.18-30 64.83-32 32.46-53.43 61.95-63.8 87.65-10.13 25.11-21 35.36-37.36 35.36-21.53 0-27.61-17.64-28.23-19.65l-8.64 2.61-8.64 2.52a47 47 0 0 0 45.49 32.55c35.25 0 48.91-33.88 54.06-46.63 9.34-23.15 30.06-51.42 59.92-81.75 22.82-23.18 35.19-42.38 35.19-77.46a110.24 110.24 0 0 0-110.12-110.11z"/><path class="cls-1" d="M353 327.8c8.27-11.2 11.8-22.5 11.8-37.78a71.43 71.43 0 0 0-127.32-44.49l14.07 11.22A53.44 53.44 0 0 1 346.8 290c0 11.42-2.32 19-8.28 27.08zm41.34 101.78h25.01v64.7h21.11v-64.7h25.02v-16.31h-71.14v16.31zm59.73-334.14l-81.19 81.2 49.44 49.44 81.2-81.2V95.44zm31.45 42l-63.2 63.19-24-24 63.2-63.2h24zM237.59 312L104.76 444.84v49.44h49.44L287 361.44zm-90.85 164.28h-24v-24l114.85-114.82 24 24z"/></g></svg>