<svg xmlns="http://www.w3.org/2000/svg" viewBox="0 0 600 600"><title>Language</title><path d="M248.8 80.1h1.3c78.4.7 142.9 61.7 147.8 140 59.2 15 102.6 62.5 102.6 118.5 0 33-15.2 64.5-42 87.5l24.2 81.5c1.5 5.2-1.5 10.6-6.6 12.1-2.7.8-5.7.3-8.1-1.3l-87-58c-7.5 1.1-15.1 1.5-22.7 1.5-63.1 0-116.8-35.9-135.3-85.4-70.8-12.3-123.6-74.4-123.6-147.1.1-82.3 67.1-149.3 149.4-149.3zm-117.4 94.2h35.8c3.7-16.9 9.9-33.2 18.1-48.4 2.8-5.1 6-10 9.5-14.5-27.8 12.8-50.4 35.2-63.4 62.9zm107.8-73.2c-22.6 6.7-42 35.1-51.7 73.2h51.6l.1-73.2zm0 92.7h-55.8c-3.6 23.3-3.7 47.2-.1 70.5H239l.2-70.5zm19.6-92.9v73.5h51.6c-3.3-13.7-8.2-26.9-15-39.3-10.4-18.7-23.2-30.5-36.6-34.2zm0 92.9v56.9c16.8-14.2 36.7-24.5 58-30.1-.3-9-1.1-17.9-2.4-26.8h-55.6zm81.4-56.7c-10.6-10.5-23-19.1-36.5-25.5 3.3 4.4 6.3 9.1 8.9 14 7.8 14.1 13.9 30.7 17.9 48.7h36c-6.5-13.9-15.5-26.4-26.3-37.2zm33.6 56.7h-39.9c1 7.5 1.7 15.1 2.1 22.9 7.4-1 14.9-1.5 22.3-1.5 6.6 0 13.1.4 19.6 1.2-.6-7.6-2.1-15.2-4.1-22.6zm-15.5 248.7c7.8 0 15.6-.7 23.4-2 2.5-.4 5 .1 7 1.5l67.7 45.2-18.3-61.8c-1.2-3.8.2-8 3.4-10.5 25.2-19.6 39.6-47.5 39.6-76.4 0-57.3-55-103.9-122.6-103.9s-122.6 46.6-122.6 103.9 54.9 104 122.4 104zM230.9 283.8h-43.7c6.2 24.5 16.4 45.2 29.1 58.8 0-1.3-.1-2.7-.1-4 0-19.2 5.1-38.1 14.7-54.8zm-36 63.7c-6.5-8.8-11.9-18.2-16.3-28.2-5-11.4-8.8-23.3-11.5-35.5h-36c13 28.2 35.7 50.8 63.8 63.7zm-31.4-83.2c-3.1-23.4-3.1-47.1.1-70.5H124c-6.5 23-6.6 47.4-.1 70.5h39.6z" fill="#fff"/></svg>