<svg xmlns="http://www.w3.org/2000/svg" viewBox="0 0 600 600"><defs><style>.cls-1{fill:#0a46e6}</style></defs><title>Icon</title><g id="Hybrid_Lines_Outlined_" data-name="Hybrid_Lines (Outlined)"><path class="cls-1" d="M299.16 107.07c-72.45 0-131.39 58.32-131.39 130 0 29.34 21 80.09 62.43 150.84 30.42 52 61.27 96.34 61.58 96.78l7.38 10.6 7.38-10.6c.31-.44 31.15-44.81 61.58-96.78 41.42-70.75 62.42-121.5 62.42-150.84 0-71.68-58.94-130-131.38-130zm53.48 271.65c-21.19 36.2-42.58 68.67-53.48 84.85-10.89-16.16-32.25-48.57-53.43-84.75-49.55-84.65-60-123.81-60-141.75 0-61.75 50.87-112 113.39-112s113.38 50.25 113.38 112c.04 17.93-10.35 57.06-59.86 141.65z"/><path class="cls-1" d="M299.16 175A61.81 61.81 0 10361 236.76 61.88 61.88 0 00299.16 175zm0 105.62A43.81 43.81 0 11343 236.76a43.86 43.86 0 01-43.84 43.81z"/></g></svg>