<svg xmlns="http://www.w3.org/2000/svg" width="17" height="23"><path fill="#002EFF" stroke="#002EFF" d="M8.48 22.186a.636.636 0 01-.498-.24c-.28-.352-6.875-8.692-6.875-13.404 0-4.065 3.307-7.373 7.373-7.373 4.065 0 7.373 3.308 7.373 7.373 0 4.702-6.595 13.051-6.876 13.404a.636.636 0 01-.497.24zm0-19.745a6.109 6.109 0 00-6.102 6.101c0 3.57 4.565 9.926 6.101 11.965 1.537-2.04 6.102-8.404 6.102-11.965A6.109 6.109 0 008.48 2.441zm0 9.357a3.26 3.26 0 01-3.256-3.256A3.26 3.26 0 018.48 5.286a3.26 3.26 0 013.255 3.256 3.26 3.26 0 01-3.255 3.256zm0-5.24c-1.095 0-1.985.89-1.985 1.984 0 1.094.89 1.985 1.985 1.985 1.094 0 1.984-.89 1.984-1.985 0-1.094-.89-1.984-1.984-1.984z"/></svg>