<svg xmlns="http://www.w3.org/2000/svg" viewBox="0 0 600 600"><defs><style>.cls-1{fill:#231f20}</style></defs><title>Icon</title><g id="Hybrid_Lines_Outlined_" data-name="Hybrid_Lines (Outlined)"><path class="cls-1" d="M408.46 205l49.09-54.42-13.36-12.06-60 66.48h-.92l-7.33-31a23.16 23.16 0 00-22.54-17.82H246.6A23.18 23.18 0 00224.06 174l-7.35 31H116.36v227.49H179l-35.56 39.42L156.81 484l46.43-51.48h280.41V205zM195.24 414.49h-60.88V223h96.58l3.28-13.85 7.36-31.05a5.15 5.15 0 015-4H353.4a5.16 5.16 0 015 4l7.36 31.05 3 12.9zm270.41 0H219.48L392.23 223h73.42z"/><path class="cls-1" d="M232.17 312.32a68.28 68.28 0 004.1 23.33l81.06-89.86a68.56 68.56 0 00-85.16 66.53zm49.13 65.75a68.56 68.56 0 0082.86-91.86z"/></g></svg>