<svg xmlns="http://www.w3.org/2000/svg" viewBox="0 0 600 600"><defs><style>.cls-1{fill:#231f20}</style></defs><g id="Hybrid_Lines_Outlined_" data-name="Hybrid_Lines (Outlined)"><path class="cls-1" d="M368.73 255.88H329l20.8-41.63a9 9 0 0 0-8.05-13h-55.16a9 9 0 0 0-8.06 5l-45.23 91.07a9 9 0 0 0 8.06 13h40.88L251 407.88a9 9 0 0 0 15.76 8.12l109.17-145.72a9 9 0 0 0-7.2-14.4zm-84.26 106.48l18.67-58.3a9 9 0 0 0-8.57-11.74h-38.69l36.29-73.09h35l-20.8 41.63a9 9 0 0 0 8.05 13h36.36z"/><path class="cls-1" d="M300 125.08c-96.15 0-174.38 78.22-174.38 174.37S203.84 473.83 300 473.83s174.36-78.23 174.36-174.38S396.14 125.08 300 125.08zm112.11 283.26l-60.83-67.44-13.37 12.1 60.94 67.55A155.63 155.63 0 0 1 300 455.83c-86.23 0-156.38-70.15-156.38-156.38a155.91 155.91 0 0 1 46.11-110.77l45 49.84 13.37-12.05-44.87-49.74A155.64 155.64 0 0 1 300 143.08c86.22 0 156.37 70.15 156.37 156.37a155.86 155.86 0 0 1-44.26 108.89z"/></g></svg>