<svg xmlns="http://www.w3.org/2000/svg" viewBox="0 0 600 600"><defs><style>.cls-1{fill:#231f20}</style></defs><title>Icon</title><g id="Hybrid_Lines_Outlined_" data-name="Hybrid_Lines (Outlined)"><path class="cls-1" d="M300.1 235.55a77.58 77.58 0 1077.57 77.58 77.66 77.66 0 00-77.57-77.58zm0 137.15a59.58 59.58 0 1159.57-59.57 59.64 59.64 0 01-59.57 59.57z"/><path class="cls-1" d="M382.65 205.8l-7.36-31a23.17 23.17 0 00-22.54-17.82H246a23.17 23.17 0 00-22.54 17.82l-7.36 31H115.71v227.5H483V205.8zM465 415.3H133.71V223.8h96.58l3.28-13.8 7.36-31a5.14 5.14 0 015-4h106.8a5.14 5.14 0 015 4l7.36 31 3.28 13.85H465z"/></g></svg>