<svg xmlns="http://www.w3.org/2000/svg" viewBox="0 0 600 600"><defs><style>.cls-1{fill:#231f20;}</style></defs><title>Icon</title><g id="Hybrid_Lines_Outlined_" data-name="Hybrid_Lines (Outlined)"><path class="cls-1" d="M367.24,153l-251.67,279L128.93,444l28.79-31.92H317.66a48.53,48.53,0,0,0,48-42.32l.14-1.09-.06-187.23L380.61,165A151.52,151.52,0,0,1,493,115V97A169.58,169.58,0,0,0,367.24,153ZM347.85,367.53a30.5,30.5,0,0,1-30.19,26.55H174l173.83-192.7Z"/><path class="cls-1" d="M238.12,240.59a48.83,48.83,0,1,0-48.83-48.83A48.89,48.89,0,0,0,238.12,240.59Zm0-79.66a30.83,30.83,0,1,1-30.83,30.83A30.87,30.87,0,0,1,238.12,160.93Z"/><path class="cls-1" d="M211.53,429.58a43.92,43.92,0,1,0,43.92,43.92A44,44,0,0,0,211.53,429.58Zm0,69.84a25.92,25.92,0,1,1,25.92-25.92A26,26,0,0,1,211.53,499.42Z"/><path class="cls-1" d="M352.74,429.58a43.92,43.92,0,1,0,43.92,43.92A44,44,0,0,0,352.74,429.58Zm0,69.84a25.92,25.92,0,1,1,25.92-25.92A25.94,25.94,0,0,1,352.74,499.42Z"/></g></svg>