<svg width="20" height="15" xmlns="http://www.w3.org/2000/svg"><title>Sue the T-Rex</title><g fill="#FFF"><path d="M19.923 3.813c-.061-.424-.379-1.01-.379-1.01-.076-.136-.213-.25-.329-.372-.473-.497-.996-.799-1.648-1.058-.463-.185-.946-.105-1.43-.202-.58-.117-1.189-.154-1.773-.28-.25-.055-.501-.155-.754-.212-.308-.07-.35.157-.607.164-.227.006-.464-.227-.732-.226-.377 0-.692.173-1.054.25-.607.13-1.189-.178-1.784-.334A21.6 21.6 0 006.987.021a1.797 1.797 0 00-.83.063c-.356.122-.333.469-.702.505C5.06.627 4.642.495 4.24.594c-.353.087-.522.396-.83.535-.404.184-.838.185-1.232.434-.394.25-.617.714-.863 1.104-.174.278-.307.477-.399.78a1.91 1.91 0 01-.298.59c-.119.172-.29.376-.307.586-.019.22.125.365.083.582-.06.311-.567.623-.332.933.182.24.52.14.74.116.043.497-.038 1.039.106 1.516.13.431.447.77.535 1.193.414.176 1.17-.329 1.568-.451.481-.149 1.01-.214 1.503-.322.319-.07.615-.146.938-.1.157.024.532.23.684.179.128-.043.073-.126.138-.224.144-.218.236-.344.522-.366.308-.024.583.12.906.084.332-.037.628-.149.956-.198.627-.094 1.3-.09 1.908.078.37.102.716.194 1.068.24.031.058.06.118.082.18.073.21.041.571.218.713.166-.197.29-.53.369-.869l.06-.005c.124.363.22.735.394 1.064.232-.089.316-.747.31-1.19l.1-.023c.222.345.336.756.53 1.156.175-.123.331-.636.395-.844a1.34 1.34 0 00.047-.562l.45-.126c.125.194.273.384.347.62.063.196.074.48.183.639.324-.227.451-.986.406-1.537l.045-.014c.287.36.402.79.547 1.236.336-.361.236-.965.168-1.471l.286-.1c.116.243.194.502.232.77.026.178.104.628.186 1.035.33-.21.33-1.093.33-1.322 0-.243-.064-.477-.123-.71l.16-.06c.161.32.487.945.638.918.262-.047.132-.757.021-1.186.191-.084.382-.175.566-.272.075.217.21.456.272.64.076.222.086.417.258.219.167-.193.171-.872.12-1.25.224-.148.458-.299.693-.352.14-.373.054-.984-.001-1.367zM7.258 5.24c-.097.2-.248.564-.43.7-.254.188-.66.124-.946.034-.553-.173-.815-.608-.568-1.161.134-.301.707-.673.455-.946-.237-.257-.787-.115-.916-.533-.106-.344.175-.641.463-.673.122-.013.339.051.431-.034.084-.077.069-.333.117-.442l.083-.084c.574.166 1.067.885 1.352 1.4.346.628.255 1.133-.04 1.739zm3.606.188c-.425.289-.873.544-1.374.392a1.436 1.436 0 01-.598-.329c-.232-.225-.232-.416-.247-.728-.056-1.176-.227-2.418-.995-3.307 0 0 .055.003 0 0-.036-.378 1.142.13 1.34.203.772.284 1.668.53 2.233 1.17.735.835.557 1.975-.36 2.599zm2.885-.727c-.3-.018-.81-.383-.632-.751.161-.332.878-.25 1.189-.147.164.055.985.6.488.736l.11-.056c-.128.058-.365.064-.523.106-.211.057-.416.124-.632.112zm2.803-2.124s.981-.31 1.449-.204c.389.088 1.1.325.887.85-.246.603-.627.148-.99-.064a6.36 6.36 0 00-.658-.323c-.151-.067-.642-.149-.688-.259z"/><path d="M18.817 11.96c-.15.31-.168.727-.358 1.025a2.275 2.275 0 00-.177-.06c.063-.143.11-.3.123-.378.059-.374-.039-1.017-.345-1.277-.248.434-.087 1.037-.39 1.481 0 0-.17.022-.26.014-.05-.3-.083-.946-.275-.856-.047.266-.158.57-.224.845h-.004c-.054-.32-.154-.877-.358-.855-.207.023-.233.592-.37.837a6.95 6.95 0 01-1.303-.203c.01-.56-.01-1.324-.237-1.402 0 0-.12.797-.309 1.232a13.08 13.08 0 01-.39-.15l-.082-.03c.012-.343-.096-.741-.156-1.029-.082.187-.434.723-.4.826 0 0-.284-.065-.439-.109-.043-.25-.105-.5-.15-.744-.037-.206-.066-.456-.217-.61-.008.172-.077.877-.23 1.174a4.154 4.154 0 01-.293-.118c-.061-.261-.156-.535-.261-.628-.05.138-.099.282-.154.423-.177-.095-.35-.194-.525-.29-.122-.275-.243-.55-.37-.826-.134.123-.204.33-.268.52-.779-.319-1.573-.656-2.392-.872-.63-.167-1.278-.4-1.93-.42-.706-.022-1.179-.186-1.842-.405-.776-.256-1.451.233-2.295.166-.05-.038-.11-.006-.117-.102-.377-.03-.557-.172-.97-.053.01.11.024.218.023.335 0 .236-.069.576-.222.777-.184.24-.611.289-.648.638-.034.332.297.386.534.513.42.224.81.472 1.148.81.34.34.799.582 1.09.943.33.407.43.563.954.766.39.15.708.37 1.061.566.499.277 1.144.438 1.71.531.728.12 1.4-.095 2.085-.296a6.806 6.806 0 011.947-.269c1.42 0 2.831.176 4.248.24.672.029 1.344.084 2.015.132.368.026.794.1 1.099-.131.243-.184.407-.43.587-.666.13-.171.407-.404.387-.64a.216.216 0 00-.006-.034c.217-.386.162-.981-.044-1.34zm-15.62-1.476c-.276.127-.683.01-.897-.18-.618-.551.584-.48.924-.478l-.056-.053c.321.147.288.593.029.711zm3.385 3.519c-.326.07-.727-.405-.922-.587-.25-.234-.799-.718-.505-1.116v.026c.512.15.808.423 1.183.771.158.148.76.796.244.906z"/></g></svg>
