<svg xmlns="http://www.w3.org/2000/svg" viewBox="0 0 600 600"><defs><style>.cls-1{fill:#0a46e6}</style></defs><title>Icon</title><g id="Hybrid_Lines_Outlined_" data-name="Hybrid_Lines (Outlined)"><path class="cls-1" d="M447.25 199.2l-6.25 4.48A29.85 29.85 0 01399.37 162l4.49-6.21-58.3-58.29L94.39 348.69 152.68 407l6.22-4.48a29.85 29.85 0 0141.66 41.67l-4.49 6.21 58.29 58.3 251.19-251.21zM312.51 425.08l-58.15 58.14L219.19 448A47.88 47.88 0 00155 383.87l-35.17-35.18L178 290.55l11.31 11.32L202 289.14l-11.31-11.31L345.56 123l35.18 35.18a47.88 47.88 0 0064.18 64.17l35.18 35.17-154.87 154.83-16.44-16.44-12.72 12.73z"/><path class="cls-1" transform="rotate(-45 249.046 348.892)" d="M240.04 336.39h18v25h-18z"/><path class="cls-1" transform="rotate(-45 217.938 317.777)" d="M208.93 305.28h18v25h-18z"/><path class="cls-1" transform="rotate(-45 280.154 380.006)" d="M271.16 367.5h18v25h-18z"/></g></svg>